<svg xmlns="http://www.w3.org/2000/svg" width="5333.333" height="3333.333">
    <path d="M0 3333.333h5333.333V0H0z" fill="#ffffff00" />
    <path
        d="M1190.97 2722.987c-22.845 0-46.666-.854-71-2.84h144.923c-22.973 1.733-47.841 2.84-73.922 2.84m223.856-43.974H934.619c-164.296-64.986-305.612-217.066-296.362-550.546 14.811-533.854 696.196-1114.507 920.37-1322.547 165.84-153.893 403.92-339.2 841.4-339.2 79.68 0 165.92 6.133 259.586 19.733 401.454 58.267 1304.174 241.76 1752.04 486.467 447.867 244.707 553.974 657.653 284.667 1111.387-147.187 247.973-334.4 408.16-473.947 502.453-6.64-19.187-14.946-39.493-24.386-59.12-71.28-148.013-176.627-211.293-319.294-211.293-51.24 0-107.293 8.16-168.306 23.48-206.28-283.867-407.12-566.56-407.12-566.56l-133.44-29.6-30.174-6.694-73.546-16.306a2.075 2.075 0 01-.08-.24h-.014l-121.2-91.867 13.56-44.387c25.347 16.574 53.667 27.827 84.267 32.52a209.184 209.184 0 0031.6 2.4c88.973 0 173.133-56.92 226.227-146.133a103.753 103.753 0 009.48-6.2c20.973-15.347 38.466-39.253 49.253-67.32 12.733-33.133 14.267-67.72 4.413-94.04 36.334-23.453 65.827-68.493 116.84-153.907l-155.4-45.373c-36.346-80.307-100.973-137.813-181.24-150.107a207.492 207.492 0 00-31.6-2.413c-131.386 0-252.253 124.107-278.133 293.067a434.703 434.703 0 00-3.387 28.293l-30.866-4.56-29.92 70.707-81.014 191.4-246.2 177.613-1.693.507-7.853 2.4-360.654 110.2-356.613 254.893a12420.14 12420.14 0 00-67.813 33.84L1482.8 2244.733l-28.347 181.12-39.626 253.16M587.273 1645.773c-333.948 0-273.95-1216.906 398.407-1321.293 71.29-11.067 141.07-15.867 207.653-15.867 370.12 0 642.987 148.467 547.187 195.747C1009.51 865.067 719.576 1618.653 622.435 1641.52c-12.162 2.867-23.89 4.253-35.162 4.253"
        fill="#111131" />
    <path
        d="M522.763 1472.547h1267.41V814.053H522.763zm1270.744 6.666H519.429a3.334 3.334 0 01-3.333-3.333V810.72a3.334 3.334 0 013.333-3.333h1274.078a3.335 3.335 0 013.333 3.333v665.16a3.335 3.335 0 01-3.333 3.333"
        fill="#9ec8ff" />
    <path
        d="M1793.507 1257.493H519.429a3.334 3.334 0 010-6.666h1274.078a3.335 3.335 0 010 6.666M1793.507 1035.773H519.429a3.334 3.334 0 010-6.666h1274.078a3.335 3.335 0 010 6.666"
        fill="#9ec8ff" />
    <path
        d="M1368.813 1479.213a3.335 3.335 0 01-3.333-3.333V810.72a3.335 3.335 0 016.667 0v665.16a3.335 3.335 0 01-3.334 3.333M944.12 1479.213a3.334 3.334 0 01-3.333-3.333V810.72a3.334 3.334 0 016.666 0v665.16a3.334 3.334 0 01-3.333 3.333"
        fill="#9ec8ff" />
    <path
        d="M2630.32 1652.787l-557.827 170.44-589.693 421.506-70.933 453.16s232.08.44 556.786.574c703.587.253 1842.134-.974 1997.36-11.44-249.8-332.507-662.746-913.76-662.746-913.76l-428.24-94.987-244.707-25.493"
        fill="#fff" />
    <path
        d="M2214.013 2679.013H1968.64c92.507-31.453 217.8-111.24 217.8-111.24l27.573 111.24M2901.96 2679.013h-25.787L2536 2153.133l84.307-128.106-39.507-19.854-33.16-42.12 129.24 20.56s-80.08 110.894-68.72 126.187c11.36 15.293 299.573 505.853 299.573 505.853l186.467-542.08-78.027-104.28s121-55.773 117.174-71.066c-2.094-8.414-22.28-61.4-40-107.36 2.173-.64 4.306-1.334 6.413-2.067l60.267 118.653-94.294 82.067 53.414 94.88-217.187 594.613m-411.227-788.266l-60.093-76.36s-3.947.96-11.213 2.786l-4.027-98.72 17.747-5.426 7.853-2.4.987.026 48.746 180.094"
        fill="#cdeaf3" />
    <path
        d="M2690.293 1531.493l-248.32 179.134 66.654 246.213 168.253 26.773s-80.08 110.894-68.72 126.187c11.36 15.293 299.573 505.853 299.573 505.853l186.467-542.08-78.027-104.28s121-55.773 117.174-71.066c-3.814-15.294-67.334-177.8-67.334-177.8l-165.92-125.76-209.8-63.174"
        fill="#fff" />
    <path
        d="M2966.213 902.973s-194.986 7.654-259.986 99.414 7.64 219.373-30.587 293.213c-38.24 73.827.28 192.2 29.027 199.64 28.746 7.427 261.546-592.267 261.546-592.267"
        fill="#303c60" />
    <path d="M2799.827 1270.4l-184.8 436.653L2880 2244.733l78.173-511.773-32.173-42.867 117.267-383.72-243.44-35.973"
        fill="#f09959" />
    <path
        d="M3272.427 2679.013h-69.8c18.88-72.093 100.346-398.026 98.093-648.24 0 0 15.293 193.734 7.64 334.614-6.373 117.4-28.68 267.026-35.933 313.626"
        fill="#cdeaf3" />
    <path
        d="M1454.453 2425.853l28.347-181.12-28.347 181.12m28.347-181.12l165.267-132.773a12420.14 12420.14 0 0167.813-33.84l-233.08 166.613"
        fill="#b4dcf3" />
    <path
        d="M1704.2 2679.013h-218.387c-2.733-49.573-10.613-180.226-17.92-188.653-2.8-3.2-7.826-29.573-13.44-64.507l28.347-181.12 233.08-166.613c124.467-61.587 258.613-125.067 334.96-152.213 146.333-52.054 322.907-97.307 368.587-108.734l4.466 109.187 156.907 78.813 6.027 7.654s-30.44 60.746-186.774 86.773c2.654 11.933 14.507 52.787 0 75.747-69.24 109.546-317.426 294.893-363.666 337.2-110.187 100.84-231.534 146.026-332.187 166.466"
        fill="#cdeaf3" />
    <path
        d="M2580.8 2005.173l-156.907-78.813-4.466-109.187c7.266-1.826 11.213-2.786 11.213-2.786l60.093 76.36 17.894 66.093 39.013 6.213 33.16 42.12"
        fill="#b4e0ed" />
    <path d="M2547.64 1963.053l-39.013-6.213-17.894-66.093 56.907 72.306" fill="#cdeaf3" />
    <path
        d="M2499.04 1767.693c57.64-17.946 102.36-11.933 83.347 17.12-7.76 11.84-26.534 29.574-26.534 29.574l-125.213-18.854 68.4-27.84"
        fill="#9ec8ff" />
    <path d="M3361.253 2093.987l-7.613 20.6-928.68-326.414 18.48-50.04 917.813 355.854" fill="#fff" />
    <path
        d="M2428.4 1786.56l923.653 324.64 5.787-15.68L2445 1741.6zm926.84 331.413l-2.48-.866-931.24-327.307 20.36-55.133 2.533.986 920.254 356.787-9.427 25.533"
        fill="#2e5b9a" />
    <path
        d="M3710.387 2339.827c230.92-58.014 390.733-13.36 487.6 187.813 35.96 74.707 55.226 159.107 30.16 155.24-25.067-3.867-394.694 4.147-394.694 4.147l-123.066-347.2"
        fill="#fff" />
    <path
        d="M2492.493 1771.48c-9.413 31.707-58.44 45.12-109.506 29.96-51.054-15.173-84.8-53.187-75.374-84.893 9.414-31.72 58.44-45.12 109.494-29.96 51.066 15.173 84.813 53.173 75.386 84.893"
        fill="#f39892" />
    <path
        d="M2835.253 1986.68c-12.08-22.733-140.306-73.44-118.813-66.147 21.48 7.28 90 30.8 68.427 5.52-21.574-25.266-186.36-137.08-238.814-138.52-49.133-1.346-117.96-9.96-152.573 16.627-85.733 65.867-160.667 91.627-160.667 91.627s-51.44 19.84-53.733 20.253c-108.88 19.187-166.907 410.427-166.907 410.427 13.814-.307 251.494-189.12 364.507-278.64 22.4 7.813 93.227 4.346 149.12-24.694 30.56-15.88 73.253-46.84 73.253-46.84s76.36 22.027 98.56 27.987c59.68 16 149.734 5.12 137.64-17.6"
        fill="#9ec8ff" />
    <path
        d="M1451.027 2268.92c-96.08 115.08-117.919 402.84-15.894 416.747 239.36 32.626 926.174-533.6 926.174-533.6l-111.4-267.134s-661.88 219.894-798.88 383.987"
        fill="#fff" />
    <path
        d="M4847.493 2720.147H514.741c-11.358 0-20.565-9.214-20.565-20.574 0-11.36 9.207-20.56 20.565-20.56h4332.752c11.36 0 20.56 9.2 20.56 20.56s-9.2 20.574-20.56 20.574"
        fill="#2e5b9a" />
    <path
        d="M3345.32 2106.267c-.76 0-1.533-.12-2.28-.4l-109.733-40.147a6.677 6.677 0 01-3.974-8.56c1.267-3.453 5.107-5.227 8.56-3.96l109.72 40.147c3.454 1.266 5.24 5.093 3.974 8.546-.987 2.707-3.547 4.374-6.267 4.374M3217.267 2059.413a6.51 6.51 0 01-2.294-.413l-26.866-9.827c-3.454-1.266-5.24-5.093-3.974-8.546 1.267-3.454 5.107-5.24 8.547-3.974l26.867 9.827a6.666 6.666 0 013.973 8.56 6.677 6.677 0 01-6.253 4.373M3170.76 2042.4a6.79 6.79 0 01-2.28-.4l-227.427-83.213a6.677 6.677 0 01-3.973-8.56c1.267-3.454 5.107-5.24 8.56-3.96l227.413 83.2a6.677 6.677 0 013.974 8.56c-.987 2.693-3.547 4.373-6.267 4.373M2901.96 1944.053c-.76 0-1.533-.133-2.28-.413l-61.907-22.653a6.657 6.657 0 01-3.973-8.547 6.657 6.657 0 018.547-3.973l61.906 22.653a6.657 6.657 0 013.974 8.547 6.675 6.675 0 01-6.267 4.386M2811.107 1910.8c-.76 0-1.534-.12-2.28-.4l-52.494-19.213c-3.466-1.254-5.24-5.094-3.973-8.547 1.267-3.453 5.093-5.24 8.547-3.973l52.493 19.213a6.657 6.657 0 013.973 8.547c-.986 2.706-3.546 4.373-6.266 4.373"
        fill="#9ec8ff" />
    <path
        d="M3226.4 2620.613c-23.147 0-41.92-18.76-41.92-41.906v-425.574h83.827v425.574c0 23.146-18.76 41.906-41.907 41.906"
        fill="#fff" />
    <path
        d="M3187.147 2155.8v422.907c0 21.64 17.613 39.24 39.253 39.24s39.24-17.6 39.24-39.24V2155.8zm39.253 467.48c-24.587 0-44.587-19.987-44.587-44.573v-428.24h89.16v428.24c0 24.586-20 44.573-44.573 44.573"
        fill="#2e5b9a" />
    <path
        d="M3361.253 2620.613c-23.146 0-41.906-18.76-41.906-41.906v-425.574h83.826v425.574c0 23.146-18.773 41.906-41.92 41.906"
        fill="#fff" />
    <path
        d="M3322.013 2155.8v422.907c0 21.64 17.6 39.24 39.24 39.24s39.254-17.6 39.254-39.24V2155.8zm39.24 467.48c-24.573 0-44.573-19.987-44.573-44.573v-428.24h89.16v428.24c0 24.586-20 44.573-44.587 44.573"
        fill="#2e5b9a" />
    <path
        d="M3501.693 2620.613c-23.146 0-41.906-18.76-41.906-41.906v-425.574h83.813v425.574c0 23.146-18.76 41.906-41.907 41.906"
        fill="#fff" />
    <path
        d="M3462.453 2155.8v422.907c0 21.64 17.6 39.24 39.24 39.24s39.24-17.6 39.24-39.24V2155.8zm39.24 467.48c-24.586 0-44.573-19.987-44.573-44.573v-428.24h89.147v428.24c0 24.586-20 44.573-44.574 44.573"
        fill="#2e5b9a" />
    <path
        d="M3501.693 2601.027c-16.413 0-29.72-13.307-29.72-29.72v-301.72h59.427v301.72c0 16.413-13.293 29.72-29.707 29.72M3361.253 2601.027c-16.4 0-29.706-13.307-29.706-29.72v-177.294h59.426v177.294c0 16.413-13.306 29.72-29.72 29.72"
        fill="#9ec8ff" />
    <path
        d="M3636.56 2620.613c-23.147 0-41.92-18.76-41.92-41.906v-425.574h83.827v425.574c0 23.146-18.76 41.906-41.907 41.906"
        fill="#fff" />
    <path
        d="M3597.307 2155.8v422.907c0 21.64 17.613 39.24 39.253 39.24s39.24-17.6 39.24-39.24V2155.8zm39.253 467.48c-24.587 0-44.587-19.987-44.587-44.573v-428.24h89.16v428.24c0 24.586-20 44.573-44.573 44.573"
        fill="#2e5b9a" />
    <path
        d="M3636.56 2601.267c-15.96 0-28.88-12.934-28.88-28.88V2238.76h57.76v333.627c0 15.946-12.933 28.88-28.88 28.88M3367.92 2239.92l3.333 72.533c.254 5.52-4.013 10.2-9.533 10.454-5.52.253-10.2-4.014-10.453-9.534a7.06 7.06 0 010-.92l3.32-72.533c.173-3.68 3.293-6.52 6.973-6.36 3.467.16 6.2 2.973 6.36 6.36M3367.92 2120l2.893 74.827c.2 5.266-3.906 9.72-9.186 9.92-5.28.2-9.72-3.907-9.92-9.187a6.726 6.726 0 010-.733l2.88-74.827c.146-3.68 3.253-6.56 6.933-6.413 3.493.133 6.267 2.973 6.4 6.413"
        fill="#9ec8ff" />
    <path
        d="M3757.133 2479.413H3109.4c-8.333 0-15.16-6.813-15.16-15.16v-13.786c0-8.347 6.827-15.16 15.16-15.16h647.733c8.334 0 15.16 6.813 15.16 15.16v13.786c0 8.347-6.826 15.16-15.16 15.16M3757.133 2679.013H3109.4c-8.333 0-15.16-6.813-15.16-15.16v-13.786c0-8.347 6.827-15.16 15.16-15.16h647.733c8.334 0 15.16 6.813 15.16 15.16v13.786c0 8.347-6.826 15.16-15.16 15.16"
        fill="#f5dc95" />
    <path
        d="M3142.36 2656.96h-17.84c-7.147 0-13-5.853-13-13v-173.6c0-7.147 5.853-13 13-13h17.84c7.147 0 13 5.853 13 13v173.6c0 7.147-5.853 13-13 13M3742.76 2656.96h-15.36c-6.853 0-12.467-5.613-12.467-12.467v-174.666c0-6.854 5.614-12.467 12.467-12.467h15.36c6.853 0 12.467 5.613 12.467 12.467v174.666c0 6.854-5.614 12.467-12.467 12.467"
        fill="#f5dc95" />
    <path d="M3169.827 1743.667l-30.174-6.694 30.174 6.694m-103.8-23.24h-.014.014" fill="#c0dbff" />
    <path
        d="M3099.76 1788.8l-30.507-60.08c-1.72-4.413-2.826-7.24-3.146-8.053l73.546 16.306 30.174 6.694c-17.174 16.506-41.227 35.066-70.067 45.133"
        fill="#e2eeff" />
    <path d="M3093.347 1790.867a15644.706 15644.706 0 00-24.094-62.147l30.507 60.08c-2.107.733-4.24 1.427-6.413 2.067"
        fill="#bfe0f7" />
    <path
        d="M3053.107 1796.267c-25.374 0-62.667-.427-101.974-17.2l7.04-46.107-32.173-42.867 18.813-61.533 121.2 91.867h.014c0 .013.04.106.08.24a15644.706 15644.706 0 0127.24 70.2c-11.44 3.4-23.587 5.4-36.294 5.4h-3.946"
        fill="#e2eeff" />
    <path
        d="M2799.827 1270.4l-29.92 70.707c13.293 302.373 98.773 421.093 178.6 455.16l9.666-63.307-32.173-42.867 117.267-383.72-243.44-35.973"
        fill="#e38540" />
    <path
        d="M3480.453 1151.493c-82.2 137.64-108.52 170.44-197.64 176.987-89.106 6.533 7.654-232.453 7.654-232.453l189.986 55.466"
        fill="#303c60" />
    <path
        d="M3352.373 1326.04c-27.946 182.44-166.613 312.573-309.733 290.653-143.12-21.92-236.493-187.586-208.56-370.026 27.947-182.44 166.613-312.574 309.733-290.654 143.134 21.92 236.507 187.587 208.56 370.027"
        fill="#f09959" />
    <path
        d="M4430.613 2558.067c-36.96 0-66.92-29.96-66.92-66.92v-659.574h133.84v659.574c0 36.96-29.96 66.92-66.92 66.92"
        fill="#fff" />
    <path
        d="M4366.36 1834.24v656.907c0 35.426 28.813 64.253 64.253 64.253 35.427 0 64.254-28.827 64.254-64.253V1834.24zm64.253 726.493c-38.373 0-69.586-31.213-69.586-69.586v-662.24H4500.2v662.24c0 38.373-31.227 69.586-69.587 69.586"
        fill="#2e5b9a" />
    <path
        d="M4430.613 2527.64c-26.386 0-47.773-21.387-47.773-47.76v-400.347h95.533v400.347c0 26.373-21.386 47.76-47.76 47.76"
        fill="#a2dff2" />
    <path
        d="M4543.04 2365.387h-236.387c-10.746 0-19.453-8.72-19.453-19.467 0-10.747 8.707-19.453 19.453-19.453h236.387c10.747 0 19.453 8.706 19.453 19.453s-8.706 19.467-19.453 19.467M4535.413 2676.413H4314.28c-14.96 0-27.08-12.12-27.08-27.08v-21.226c0-14.96 12.12-27.08 27.08-27.08h221.133c14.96 0 27.08 12.12 27.08 27.08v21.226c0 14.96-12.12 27.08-27.08 27.08"
        fill="#f5dc95" />
    <path d="M4348.373 2634.907h-35.68V2345.92h35.68v288.987M4547.2 2634.907h-35.693V2345.92h35.693v288.987"
        fill="#f5dc95" />
    <path
        d="M4467.227 2004.013c0 10.027-8.134 18.16-18.16 18.16-10.04 0-18.174-8.133-18.174-18.16 0-10.026 8.134-18.16 18.174-18.16 10.026 0 18.16 8.134 18.16 18.16M4415.28 1919.893a8.911 8.911 0 01-8.92 8.92c-4.92 0-8.92-3.986-8.92-8.92 0-4.92 4-8.92 8.92-8.92 4.933 0 8.92 4 8.92 8.92M4464.36 1871.893c0 12.32-9.987 22.294-22.307 22.294-12.32 0-22.306-9.974-22.306-22.294s9.986-22.306 22.306-22.306 22.307 9.986 22.307 22.306"
        fill="#a2dff2" />
    <path
        d="M4430.893 1792.44c0 6.16-4.986 11.16-11.146 11.16-6.16 0-11.147-5-11.147-11.16s4.987-11.147 11.147-11.147 11.146 4.987 11.146 11.147"
        fill="#fff" />
    <path
        d="M4473.92 1964.507a9.56 9.56 0 01-9.56 9.56 9.56 9.56 0 01-9.56-9.56 9.56 9.56 0 019.56-9.56 9.56 9.56 0 019.56 9.56"
        fill="#a2dff2" />
    <path
        d="M4424.84 2127c0 10.213-8.267 18.493-18.48 18.493-10.2 0-18.48-8.28-18.48-18.493 0-10.2 8.28-18.48 18.48-18.48 10.213 0 18.48 8.28 18.48 18.48M4457.667 2162.053c0 4.76-3.854 8.6-8.6 8.6-4.76 0-8.614-3.84-8.614-8.6 0-4.746 3.854-8.6 8.614-8.6 4.746 0 8.6 3.854 8.6 8.6M4430.893 2278.68a6.057 6.057 0 01-6.053 6.053c-3.333 0-6.053-2.72-6.053-6.053 0-3.347 2.72-6.067 6.053-6.067 3.347 0 6.053 2.72 6.053 6.067M4457.667 2406.12c0 9.507-7.707 17.213-17.214 17.213-9.493 0-17.2-7.706-17.2-17.213 0-9.493 7.707-17.2 17.2-17.2 9.507 0 17.214 7.707 17.214 17.2M4430.613 2453.28c0 6.533-5.293 11.827-11.826 11.827-6.52 0-11.814-5.294-11.814-11.827 0-6.52 5.294-11.813 11.814-11.813 6.533 0 11.826 5.293 11.826 11.813M4475.933 1722.347c0 11.666-9.466 21.133-21.133 21.133-11.68 0-21.133-9.467-21.133-21.133 0-11.68 9.453-21.134 21.133-21.134 11.667 0 21.133 9.454 21.133 21.134M4407 1665.413c0 7.507-6.08 13.6-13.587 13.6-7.52 0-13.6-6.093-13.6-13.6 0-7.506 6.08-13.586 13.6-13.586 7.507 0 13.587 6.08 13.587 13.586M1102.427 2106.96v-237.467h-157.53v237.467c0 3.973-.48 7.933-1.432 11.8l-123.909 502.96c-7.663 31.107 15.881 61.16 47.916 61.16h312.381c32.035 0 55.579-30.053 47.916-61.16l-123.909-502.96a49.347 49.347 0 01-1.433-11.8"
        fill="#fff" />
    <path
        d="M947.564 1872.16v234.8c0 4.187-.508 8.373-1.51 12.44l-123.909 502.96c-3.454 14.027-.328 28.587 8.582 39.96 8.908 11.373 22.301 17.893 36.745 17.893h312.381c14.444 0 27.838-6.52 36.746-17.893 8.908-11.373 12.036-25.933 8.581-39.96l-123.91-502.96a52.026 52.026 0 01-1.51-12.44v-234.8zm232.29 813.387H867.471c-16.095 0-31.017-7.267-40.944-19.934-9.925-12.666-13.41-28.893-9.561-44.52l123.909-502.973c.9-3.64 1.355-7.4 1.355-11.16v-240.133h162.862v240.133c0 3.76.456 7.52 1.356 11.16l123.91 502.973c3.849 15.627.364 31.854-9.562 44.52-9.926 12.667-24.85 19.934-40.944 19.934"
        fill="#2e5b9a" />
    <path
        d="M1096.639 2155.067c-15.888-.36-86.746 23.72-153.792 20.28l-98.927 413.36c-6.02 30.413 12.477 59.786 37.644 59.786h284.197c25.167 0 43.663-29.373 37.643-59.786l-106.765-433.64"
        fill="#9ec8ff" />
    <path
        d="M1104.196 2292.387c0 16.4-13.287 29.68-29.679 29.68-16.392 0-29.68-13.28-29.68-29.68 0-16.387 13.288-29.68 29.68-29.68s29.679 13.293 29.679 29.68"
        fill="#fff" />
    <path
        d="M1001.504 2141.693c0 7.307-5.923 13.227-13.228 13.227-7.307 0-13.23-5.92-13.23-13.227 0-7.306 5.923-13.226 13.23-13.226 7.305 0 13.228 5.92 13.228 13.226M1054.404 2006.213c0 7.52-6.097 13.627-13.619 13.627-7.521 0-13.618-6.107-13.618-13.627 0-7.52 6.097-13.613 13.618-13.613 7.522 0 13.619 6.093 13.619 13.613M1036.22 1931.853c0 15.774-12.777 28.547-28.539 28.547-15.761 0-28.538-12.773-28.538-28.547 0-15.76 12.777-28.533 28.538-28.533 15.762 0 28.539 12.773 28.539 28.533"
        fill="#9ec8ff" />
    <path
        d="M1044.837 2493.08c0 14.613-11.844 26.467-26.456 26.467s-26.457-11.854-26.457-26.467 11.845-26.453 26.457-26.453 26.456 11.84 26.456 26.453M987.401 2213.693c0 10.707-8.688 19.4-19.405 19.4-10.719 0-19.407-8.693-19.407-19.4 0-10.72 8.688-19.413 19.407-19.413 10.717 0 19.405 8.693 19.405 19.413M947.181 2385.947c0 6.306-5.11 11.413-11.416 11.413-6.304 0-11.414-5.107-11.414-11.413 0-6.307 5.11-11.414 11.414-11.414 6.306 0 11.416 5.107 11.416 11.414M935.765 2604.427c0 11.346-9.198 20.546-20.546 20.546-11.348 0-20.548-9.2-20.548-20.546 0-11.347 9.2-20.547 20.548-20.547 11.348 0 20.546 9.2 20.546 20.547M1251.281 2250.333v-176.76h-117.256v176.76c0 2.96-.358 5.907-1.066 8.787l-92.231 374.373c-5.704 23.147 11.821 45.52 35.665 45.52h232.52c23.844 0 41.367-22.373 35.66-45.52l-92.225-374.373a36.719 36.719 0 01-1.067-8.787"
        fill="#fff" />
    <path
        d="M1136.692 2076.24v174.093c0 3.174-.385 6.334-1.144 9.427l-92.23 374.373c-2.522 10.227-.24 20.867 6.262 29.16 6.5 8.294 16.273 13.054 26.813 13.054h232.52c10.539 0 20.312-4.76 26.807-13.054 6.507-8.293 8.787-18.933 6.267-29.16l-92.228-374.373a39.547 39.547 0 01-1.144-9.427V2076.24zm172.221 605.44h-232.52c-12.19 0-23.493-5.507-31.012-15.093-7.518-9.6-10.158-21.894-7.242-33.734l92.23-374.373c.656-2.667.99-5.413.99-8.147v-179.426h122.589v179.426c0 2.734.332 5.48.99 8.147l92.235 374.373c2.907 11.84.267 24.134-7.253 33.734-7.513 9.586-18.817 15.093-31.007 15.093"
        fill="#2e5b9a" />
    <path
        d="M1278.472 2441.173c-7.648 7.734-37.981 9.08-54.381 7.734-51.396-4.174-67.159-16.934-114.782-19.374l-44.325 186.707c-4.276 21.6 8.861 42.467 26.737 42.467h201.864c17.876 0 31.014-20.867 26.738-42.467l-41.851-175.067M1258.079 2402.947c0 12.2-9.891 22.08-22.092 22.08-12.202 0-22.092-9.88-22.092-22.08 0-12.214 9.89-22.094 22.092-22.094 12.201 0 22.092 9.88 22.092 22.094M1239.036 2322.067c0 5.44-4.408 9.853-9.847 9.853-5.438 0-9.846-4.413-9.846-9.853 0-5.44 4.408-9.84 9.846-9.84 5.439 0 9.847 4.4 9.847 9.84M1198.541 2165.213c0 5.587-4.538 10.134-10.136 10.134-5.6 0-10.137-4.547-10.137-10.134 0-5.6 4.537-10.146 10.137-10.146 5.598 0 10.136 4.546 10.136 10.146M1209.647 2215.4c0 11.733-9.511 21.24-21.242 21.24-11.732 0-21.242-9.507-21.242-21.24 0-11.733 9.51-21.24 21.242-21.24 11.731 0 21.242 9.507 21.242 21.24"
        fill="#9bd6e8" />
    <path
        d="M1179.208 2567.773c0 10.88-8.816 19.694-19.692 19.694-10.877 0-19.693-8.814-19.693-19.694 0-10.866 8.816-19.693 19.693-19.693 10.876 0 19.692 8.827 19.692 19.693M1170.91 2466.627c0 7.973-6.466 14.44-14.443 14.44-7.978 0-14.446-6.467-14.446-14.44 0-7.974 6.468-14.44 14.446-14.44 7.977 0 14.444 6.466 14.444 14.44M1237.687 2576.28a8.493 8.493 0 01-8.498 8.493 8.493 8.493 0 01-8.496-8.493c0-4.693 3.804-8.507 8.496-8.507 4.694 0 8.498 3.814 8.498 8.507M1127.227 2620.613c0 8.454-6.847 15.294-15.294 15.294-8.446 0-15.294-6.84-15.294-15.294 0-8.44 6.848-15.293 15.294-15.293 8.447 0 15.294 6.853 15.294 15.293M1281.87 2625.56c0 12.667-10.271 22.933-22.942 22.933-12.67 0-22.941-10.266-22.941-22.933s10.27-22.947 22.941-22.947c12.67 0 22.941 10.28 22.941 22.947M3235.213 1314.453c-.706-.72-17.826-17.68-51.973-14.813l-2.227-26.573c47.547-3.987 72.48 21.893 73.52 23l-19.413 18.28.093.106"
        fill="#fff" />
    <path
        d="M3068.44 1422.48c-8.187 0-16.333-1.307-24.2-4.053-14.467-5.054-26.56-14.334-35.573-27.174l165.906-77.293c-1.28 10.453-3.906 21.027-7.893 31.373-17.92 46.64-58.693 77.147-98.24 77.147m-76.347-97.6c.934-12.293 3.747-24.813 8.44-37.027 1.734-4.52 3.694-8.88 5.827-13.08l123.96-57c12.293 5.867 22.533 15.08 30.24 27.147-52.12 24.787-115.067 54.68-168.467 79.96M3234.427 1333.067c18.8-34.094 47.813-56.094 73.893-56.094 4.867 0 9.627.76 14.2 2.36 3.36 1.16 6.52 2.76 9.467 4.774l-97.56 48.96"
        fill="#e5bfa2" />
    <path d="M3352.627 1324.387c.333-2.24.64-4.44.946-6.68.467 1.813.894 3.653 1.267 5.52l-2.213 1.16" fill="#d5e4f5" />
    <path
        d="M3215.587 1395.787c.493-7.72 1.72-15.68 3.666-23.707l128.987-68.667c.28.574.56 1.147.827 1.734 1.826 3.933 3.333 8.133 4.506 12.56-.306 2.24-.613 4.44-.946 6.68l-137.04 71.4"
        fill="#e5bfa2" />
    <path
        d="M3316.16 1443.76c7.6-15.72 14.293-32.253 19.947-49.467l13.586-7.946a154.116 154.116 0 01-2.933 8.306c-7.493 19.494-18.28 36.307-30.6 49.107"
        fill="#d5e4f5" />
    <path
        d="M3263.733 1470.427c-4.866 0-9.626-.774-14.2-2.36-6.933-2.427-13.053-6.68-18.133-12.56l104.707-61.214c-5.654 17.214-12.347 33.747-19.947 49.467-16.147 16.773-34.947 26.667-52.427 26.667"
        fill="#e5bfa2" />
    <path
        d="M3098.787 1210.707c-39.547 0-80.32 30.506-98.254 77.146-11.88 30.934-11.706 63.76.48 90.067 9.2 19.84 24.16 33.853 43.227 40.507 7.867 2.746 16.013 4.053 24.2 4.053 39.547 0 80.307-30.507 98.24-77.147 11.893-30.933 11.72-63.76-.48-90.066-9.2-19.854-24.147-33.854-43.227-40.507-7.866-2.747-16-4.053-24.186-4.053m-30.547 225.066c-9.587 0-19.147-1.533-28.387-4.76-22.24-7.746-40.333-24.613-50.933-47.493-13.707-29.547-14-66.173-.827-100.453 24.2-62.947 86.667-99.24 139.28-80.894 22.24 7.747 40.32 24.614 50.934 47.48 13.706 29.56 14 66.174.826 100.467-19.946 51.88-65.893 85.653-110.893 85.653M3308.32 1276.973c-30.813 0-65.707 30.707-83.027 75.774-12.44 32.346-13.293 65.8-2.306 89.506 5.986 12.92 15.16 21.84 26.546 25.814 33.547 11.706 77.174-21.24 97.227-73.414 12.44-32.346 13.293-65.813 2.307-89.506-5.987-12.92-15.16-21.854-26.547-25.814-4.573-1.6-9.333-2.36-14.2-2.36m-44.707 206.774c-6.346 0-12.546-1.027-18.48-3.094-14.853-5.186-26.706-16.52-34.253-32.8-12.467-26.906-11.733-64.253 1.973-99.893 10.787-28.067 28.28-51.987 49.254-67.333 21.773-15.934 44.786-20.867 64.813-13.88 14.853 5.173 26.707 16.52 34.253 32.786 12.467 26.907 11.734 64.254-1.973 99.907-10.787 28.067-28.28 51.973-49.253 67.32-15.32 11.213-31.267 16.987-46.334 16.987"
        fill="#fff" />
    <path
        d="M3336.107 1394.293c7.133-21.72 12.64-44.546 16.266-68.253.08-.547.174-1.107.254-1.653l2.213-1.16c3.72 18.84 1.973 41.026-5.147 63.12l-13.586 7.946"
        fill="#dfebf7" />
    <path
        d="M3231.4 1455.507c-3.253-3.774-6.08-8.214-8.413-13.254-6.08-13.12-8.534-29.213-7.4-46.466l137.04-71.4c-.08.546-.174 1.106-.254 1.653-3.626 23.707-9.133 46.533-16.266 68.253l-104.707 61.214"
        fill="#ebcfb9" />
    <path
        d="M3225.587 1458.907c-11.707-14.187-17.64-35.48-16.814-59.574l6.814-3.546c-1.134 17.253 1.32 33.346 7.4 46.466 2.333 5.04 5.16 9.48 8.413 13.254l-5.813 3.4m124.106-72.56c7.12-22.094 8.867-44.28 5.147-63.12l6.107-3.174c3.893 18.014 3.173 39.374-2.84 61.374l-8.414 4.92"
        fill="#fff" />
    <path
        d="M3219.253 1372.08c1.547-6.44 3.574-12.907 6.04-19.333a159.297 159.297 0 019.134-19.68l97.56-48.96c6.6 4.493 12.106 11.013 16.253 19.306l-128.987 68.667"
        fill="#ebcfb9" />
    <path
        d="M3211.52 1376.187c1.707-8.494 4.213-17.174 7.547-25.84 1.613-4.2 3.373-8.267 5.266-12.214l10.094-5.066c-3.4 6.186-6.48 12.76-9.134 19.68-2.466 6.426-4.493 12.893-6.04 19.333l-7.733 4.107m136.72-72.774c-4.147-8.293-9.653-14.813-16.253-19.306l6.653-3.347c6.32 5.027 11.52 11.653 15.48 19.533l-5.88 3.12"
        fill="#fff" />
    <path
        d="M3008.667 1391.253c-2.88-4.093-5.427-8.546-7.654-13.333-7.373-15.92-10.346-34.213-8.92-53.04 53.4-25.28 116.347-55.173 168.467-79.96a88.33 88.33 0 015.64 10.347c8.12 17.506 10.907 37.893 8.373 58.693l-165.906 77.293"
        fill="#ebcfb9" />
    <path
        d="M3002.573 1394.08c-12.266-17.92-18.466-41.133-17.32-65.96 2.254-1.067 4.547-2.147 6.84-3.24-1.426 18.827 1.547 37.12 8.92 53.04 2.227 4.787 4.774 9.24 7.654 13.333l-6.094 2.827m172-80.12c2.534-20.8-.253-41.187-8.373-58.693a88.33 88.33 0 00-5.64-10.347l6.027-2.853c11.853 18.88 17.293 43.053 15 68.613l-7.014 3.28"
        fill="#fff" />
    <path
        d="M3006.36 1274.773c19.987-39.186 56.707-64.066 92.427-64.066 8.186 0 16.32 1.306 24.186 4.053 2.534.88 4.974 1.88 7.347 3.013l-123.96 57"
        fill="#ebcfb9" />
    <path
        d="M2996.933 1279.107c20.12-45.707 61.44-75.067 101.867-75.067 8.92 0 17.787 1.427 26.373 4.427a77.604 77.604 0 0112.787 5.8l-7.64 3.506a71.276 71.276 0 00-7.347-3.013c-7.866-2.747-16-4.053-24.186-4.053-35.72 0-72.44 24.88-92.427 64.066l-9.427 4.334"
        fill="#fff" />
    <path
        d="M2892.227 1301.747c-44.56 20.666-25.32-56.08-26.147-120.494-.56-42.666-77.36-274.453 35.88-326.066 113.253-51.614 214.427-15.614 280.173-42.374 65.734-26.773 252.44 27.08 271.56 116.934 15.16 71.266 52.187 120.373 77.707 166.28 25.52 45.906-65.32 124.893-138.88 130.026-109.707 7.64-256.093-200.733-335.467-183.52-79.373 17.2-127.92 242.107-164.826 259.214"
        fill="#303c60" />
    <path d="M2833.173 1110.36l188.787 128.173-22.693 29.88-174.16-147.44 8.066-10.613" fill="#fff" />
    <path
        d="M2866.907 1199.147c0 61.56-27.814 119.813-67.174 119.813-39.373 0-71.28-49.907-71.28-111.467s31.907-111.466 71.28-111.466c39.36 0 67.174 41.546 67.174 103.12"
        fill="#f09959" />
    <path
        d="M4150.547 2679.013h-118.4c-58.614-5.906-106.094-17.706-108.414-22.053-3.6-6.76 51.214-279.507 51.214-279.507 110.88 25.494 169.506 90.867 192.44 160.134 21.466 64.786 55.693 127.613-16.84 141.426"
        fill="#cdeaf3" />
    <path
        d="M4097.733 2682.493c-22.253 0-44.626-1.36-65.586-3.48h118.4c-5.014.96-10.56 1.68-16.64 2.147-11.84.92-23.987 1.333-36.174 1.333"
        fill="#6599c1" />
    <path
        d="M4037.387 2394.013c122.36 52.894 106.986 238.107 69.666 253.64-174.173 72.494-261.933 24.6-334.76-12.746-72.84-37.347-57.36-107.267-57.36-107.267s3.374-37.787 118.534-86.173c84.12-35.347 203.92-47.454 203.92-47.454"
        fill="#9ec8ff" />
    <path
        d="M4080.96 2423.333c-92.653-92.093-220.613-80.533-278.08-57.946-57.467 22.586-154.56 61.48-87.947 69.92 66.614 8.44 154.227-3.747 184.814 6.16 30.586 9.906 181.213-18.134 181.213-18.134"
        fill="#9ec8ff" />
    <path
        d="M1720.173 1148.827h129.2l64.6-111.88-64.6-111.894h-129.2l-64.586 111.894zm133.054 13.333h-136.894a6.647 6.647 0 01-5.773-3.333l-68.453-118.547a6.687 6.687 0 010-6.667l68.453-118.56a6.675 6.675 0 015.773-3.333h136.894a6.708 6.708 0 015.773 3.333l68.44 118.56a6.687 6.687 0 010 6.667L1859 1158.827a6.68 6.68 0 01-5.773 3.333"
        fill="#fff" />
    <path
        d="M1889.733 1040.28c-1.146 0-2.266-.6-2.88-1.667l-52.48-90.906a3.332 3.332 0 011.214-4.547c1.6-.92 3.64-.373 4.56 1.213l52.48 90.907a3.325 3.325 0 01-1.227 4.547 3.266 3.266 0 01-1.667.453M1679.813 1040.28a3.338 3.338 0 01-2.88-5l52.48-90.907a3.332 3.332 0 014.547-1.213c1.6.92 2.147 2.96 1.227 4.547l-52.48 90.906a3.344 3.344 0 01-2.894 1.667M1837.253 1131.173h-104.96a3.335 3.335 0 010-6.666h104.96a3.335 3.335 0 010 6.666M2128.267 1162.16a6.651 6.651 0 01-5.774-3.333l-68.453-118.547a6.687 6.687 0 010-6.667l68.453-118.56a6.675 6.675 0 015.774-3.333h136.88a6.66 6.66 0 016.666 6.667 6.66 6.66 0 01-6.666 6.666h-133.04l-64.587 111.894 66.52 115.213a6.67 6.67 0 01-2.44 9.107c-1.053.6-2.2.893-3.333.893M1645.893 1280.707a6.54 6.54 0 01-3.32-.894 6.67 6.67 0 01-2.44-9.106l68.44-118.547a6.67 6.67 0 019.107-2.44 6.67 6.67 0 012.44 9.107l-68.44 118.546a6.66 6.66 0 01-5.787 3.334"
        fill="#fff" />
    <path
        d="M2265.147 925.053a6.67 6.67 0 01-5.773-10l68.453-118.546a6.666 6.666 0 1111.546 6.666L2270.92 921.72c-1.227 2.147-3.467 3.333-5.773 3.333M2059.813 1043.613H1922.92a6.708 6.708 0 01-5.773-3.333l-68.44-118.56a6.687 6.687 0 010-6.667l68.44-118.546a6.67 6.67 0 019.106-2.44 6.646 6.646 0 012.44 9.106l-66.52 115.214 64.6 111.893h133.04a6.66 6.66 0 016.667 6.667 6.67 6.67 0 01-6.667 6.666M2568.067 764.44h-192.654c-9.76 0-17.746-7.987-17.746-17.747s7.986-17.746 17.746-17.746h192.654c9.76 0 17.733 7.986 17.733 17.746 0 9.76-7.973 17.747-17.733 17.747M2568.067 711.213h-192.654c-9.76 0-17.746-7.986-17.746-17.746 0-9.76 7.986-17.747 17.746-17.747h192.654c9.76 0 17.733 7.987 17.733 17.747s-7.973 17.746-17.733 17.746M2413.093 957.093h-82.973c-10.64 0-19.347-8.706-19.347-19.346 0-10.654 8.707-19.36 19.347-19.36h82.973c10.64 0 19.347 8.706 19.347 19.36 0 10.64-8.707 19.346-19.347 19.346M2030.667 777.107h-72.254c-12.546 0-22.813-10.254-22.813-22.814v-2.533c0-12.547 10.267-22.813 22.813-22.813h72.254c12.546 0 22.813 10.266 22.813 22.813v2.533c0 12.56-10.267 22.814-22.813 22.814M2318.373 1232.133h-141.96c-12.546 0-22.813-10.266-22.813-22.813v-10.147c0-12.546 10.267-22.813 22.813-22.813h141.96c12.547 0 22.814 10.267 22.814 22.813v10.147c0 12.547-10.267 22.813-22.814 22.813M1611.133 1336.053h-81.12c-12.546 0-22.813-10.266-22.813-22.813v-1.267c0-12.546 10.267-22.813 22.813-22.813h81.12c12.547 0 22.814 10.267 22.814 22.813v1.267c0 12.547-10.267 22.813-22.814 22.813M4084.107 1328.587H4184.6l50.253-87.027-50.253-87.04h-100.493l-50.24 87.04zm104.346 13.333h-108.186a6.647 6.647 0 01-5.774-3.333l-54.106-93.694a6.687 6.687 0 010-6.666l54.106-93.707a6.675 6.675 0 015.774-3.333h108.186a6.675 6.675 0 015.774 3.333l54.093 93.707c1.2 2.053 1.2 4.6 0 6.666l-54.093 93.694a6.647 6.647 0 01-5.774 3.333"
        fill="#fff" />
    <path
        d="M4250.387 1424.587h100.506l50.24-87.027-50.24-87.027h-100.506l-50.24 87.027zm104.346 13.333h-108.186a6.647 6.647 0 01-5.774-3.333l-54.093-93.694a6.623 6.623 0 010-6.666l54.093-93.694a6.647 6.647 0 015.774-3.333h108.186a6.647 6.647 0 015.774 3.333l54.093 93.694c1.2 2.066 1.2 4.6 0 6.666l-54.093 93.694a6.647 6.647 0 01-5.774 3.333M4022.16 1437.92a6.67 6.67 0 01-5.773-10l54.093-93.693a6.67 6.67 0 019.107-2.44 6.67 6.67 0 012.44 9.106l-54.094 93.694a6.667 6.667 0 01-5.773 3.333M4572.013 1436.907a6.689 6.689 0 01-5.786-3.334l-54.094-93.706c-1.84-3.187-.746-7.254 2.44-9.107a6.662 6.662 0 019.107 2.453l54.093 93.694c1.84 3.186.76 7.266-2.44 9.106a6.64 6.64 0 01-3.32.894M4022.16 1250.533h-108.187a6.67 6.67 0 01-6.666-6.666 6.66 6.66 0 016.666-6.667h108.187a6.66 6.66 0 016.667 6.667 6.67 6.67 0 01-6.667 6.666"
        fill="#fff" />
    <path
        d="M4517.027 1341.92h-108.2a6.68 6.68 0 01-5.774-3.333l-54.093-93.694a6.687 6.687 0 010-6.666l54.093-93.707a6.67 6.67 0 019.107-2.44c3.2 1.84 4.28 5.92 2.44 9.107l-52.16 90.373 50.24 87.027h104.347a6.67 6.67 0 016.666 6.666 6.67 6.67 0 01-6.666 6.667M4381.88 1342.547c-1.147 0-2.267-.6-2.88-1.667l-43.613-75.547a3.309 3.309 0 011.213-4.546 3.34 3.34 0 014.56 1.213l43.613 75.547a3.325 3.325 0 01-1.226 4.546 3.266 3.266 0 01-1.667.454M4092.827 1318.773c-1.147 0-2.267-.6-2.894-1.68l-43.613-75.533a3.337 3.337 0 011.227-4.56 3.325 3.325 0 014.546 1.227l43.614 75.533a3.345 3.345 0 01-2.88 5.013M4216.493 1244.893c-1.16 0-2.28-.6-2.893-1.666l-43.613-75.547a3.348 3.348 0 011.213-4.56c1.6-.907 3.64-.373 4.56 1.227l43.613 75.546a3.325 3.325 0 01-1.226 4.547 3.254 3.254 0 01-1.654.453"
        fill="#fff" />
    <path
        d="M4616.08 1320.32h-88.147c-9.92 0-18.04-8.107-18.04-18.027v-1.706c0-9.92 8.12-18.04 18.04-18.04h88.147c9.92 0 18.027 8.12 18.027 18.04v1.706c0 9.92-8.107 18.027-18.027 18.027M4444.893 1125.32h-72.12c-9.92 0-18.04-8.12-18.04-18.04v-16.52c0-9.92 8.12-18.04 18.04-18.04h72.12c9.92 0 18.04 8.12 18.04 18.04v16.52c0 9.92-8.12 18.04-18.04 18.04M4668.533 1487.813h-114.706c-9.92 0-18.027-8.106-18.027-18.026v-4.507c0-9.92 8.107-18.027 18.027-18.027h114.706c9.92 0 18.027 8.107 18.027 18.027v4.507c0 9.92-8.107 18.026-18.027 18.026M4022.16 1486.693h-108.187c-9.92 0-18.026-8.12-18.026-18.026v-2.267c0-9.907 8.106-18.027 18.026-18.027h108.187c9.92 0 18.04 8.12 18.04 18.027v2.267c0 9.906-8.12 18.026-18.04 18.026M3877.92 1263.667h-90.16c-9.92 0-18.027-8.12-18.027-18.027v-9.133c0-9.92 8.107-18.027 18.027-18.027h90.16c9.907 0 18.027 8.107 18.027 18.027v9.133c0 9.907-8.12 18.027-18.027 18.027M763.116 1274.04c0 34.48-27.95 62.427-62.43 62.427-34.478 0-62.429-27.947-62.429-62.427 0-34.48 27.951-62.427 62.43-62.427 34.478 0 62.429 27.947 62.429 62.427M1070.852 1403.72H640.784c-6.31 0-11.47-5.173-11.47-11.48s5.16-11.467 11.47-11.467h430.068c6.31 0 11.47 5.16 11.47 11.467s-5.16 11.48-11.47 11.48M1070.852 1452.08H640.784c-6.31 0-11.47-5.16-11.47-11.467 0-6.306 5.16-11.466 11.47-11.466h430.068c6.31 0 11.47 5.16 11.47 11.466 0 6.307-5.16 11.467-11.47 11.467M1478.147 1778.827c0 60.533-49.08 109.6-109.614 109.6-60.532 0-109.605-49.067-109.605-109.6 0-60.534 49.073-109.614 109.605-109.614 60.534 0 109.614 49.08 109.614 109.614"
        fill="#fff" />
    <path
        d="M1368.533 1706.373c-39.945 0-72.445 32.507-72.445 72.454 0 39.946 32.5 72.44 72.445 72.44 39.947 0 72.454-32.494 72.454-72.44 0-39.947-32.507-72.454-72.454-72.454zm0 151.56c-43.62 0-79.112-35.48-79.112-79.106 0-43.627 35.492-79.12 79.112-79.12 43.627 0 79.12 35.493 79.12 79.12 0 43.626-35.493 79.106-79.12 79.106"
        fill="#9ec8ff" />
    <path
        d="M1489.573 1722.493a6.675 6.675 0 01-5.92-3.586 6.685 6.685 0 012.84-9l393.88-205.04c3.254-1.707 7.28-.44 8.987 2.826 1.693 3.267.427 7.294-2.84 8.987l-393.867 205.053c-.986.52-2.04.76-3.08.76M1725.213 1785.493l-.293-.013-218-9.467a6.664 6.664 0 01-6.373-6.946c.16-3.68 3.28-6.494 6.946-6.374l218 9.467c3.68.16 6.534 3.28 6.374 6.947-.16 3.586-3.107 6.386-6.654 6.386M1994 1477.053c0 26.307-21.333 47.64-47.653 47.64-26.307 0-47.64-21.333-47.64-47.64 0-26.32 21.333-47.653 47.64-47.653 26.32 0 47.653 21.333 47.653 47.653M1856.627 1778.827c0 28.146-22.827 50.973-50.974 50.973-28.16 0-50.986-22.827-50.986-50.973 0-28.16 22.826-50.987 50.986-50.987 28.147 0 50.974 22.827 50.974 50.987M3779.653 1651.52c-4.746 0-8.626 3.867-8.626 8.627v82.12c0 4.76 3.88 8.626 8.626 8.626h82.134c4.76 0 8.626-3.866 8.626-8.626v-82.12c0-4.76-3.866-8.627-8.626-8.627zm82.134 112.707h-82.134c-12.106 0-21.96-9.84-21.96-21.96v-82.12c0-12.107 9.854-21.96 21.96-21.96h82.134c12.106 0 21.96 9.853 21.96 21.96v82.12c0 12.12-9.854 21.96-21.96 21.96M3779.653 1835.24c-4.746 0-8.626 3.867-8.626 8.627v82.12c0 4.76 3.88 8.626 8.626 8.626h82.134c4.76 0 8.626-3.866 8.626-8.626v-82.12c0-4.76-3.866-8.627-8.626-8.627zm82.134 112.707h-82.134c-12.106 0-21.96-9.84-21.96-21.96v-82.12c0-12.107 9.854-21.96 21.96-21.96h82.134c12.106 0 21.96 9.853 21.96 21.96v82.12c0 12.12-9.854 21.96-21.96 21.96"
        fill="#fff" />
    <path
        d="M3820.72 1731.56c-.12 0-.24 0-.36-.013a6.673 6.673 0 01-4.84-2.48l-35.68-44.44a6.66 6.66 0 011.027-9.374 6.654 6.654 0 019.36 1.027l31.04 38.64 68.666-68.667c2.6-2.6 6.827-2.6 9.427 0 2.6 2.614 2.6 6.827 0 9.427l-73.92 73.933a6.681 6.681 0 01-4.72 1.947M3820.72 1910.8h-.36a6.687 6.687 0 01-4.84-2.493l-35.68-44.44a6.66 6.66 0 011.027-9.374 6.654 6.654 0 019.36 1.027l31.04 38.653 68.666-68.666a6.647 6.647 0 019.427 0c2.6 2.6 2.6 6.813 0 9.426l-73.92 73.92a6.681 6.681 0 01-4.72 1.947"
        fill="#f39892" />
    <path
        d="M4205.133 1710.627h-225.706c-6.254 0-11.36-5.107-11.36-11.347 0-6.24 5.106-11.347 11.36-11.347h225.706c6.24 0 11.347 5.107 11.347 11.347 0 6.24-5.107 11.347-11.347 11.347M4205.133 1754.827h-225.706c-6.254 0-11.36-5.107-11.36-11.347 0-6.24 5.106-11.347 11.36-11.347h225.706c6.24 0 11.347 5.107 11.347 11.347 0 6.24-5.107 11.347-11.347 11.347M4205.133 1896.28h-225.706c-6.254 0-11.36-5.107-11.36-11.347 0-6.24 5.106-11.346 11.36-11.346h225.706c6.24 0 11.347 5.106 11.347 11.346s-5.107 11.347-11.347 11.347M4116.533 1940.173h-137.106c-6.254 0-11.36-5.12-11.36-11.36 0-6.24 5.106-11.346 11.36-11.346h137.106c6.24 0 11.347 5.106 11.347 11.346s-5.107 11.36-11.347 11.36"
        fill="#fff" />
    <path
        d="M4563.027 538.587h-57.347c-8.413 0-15.293-6.88-15.293-15.294v-57.346c0-8.414 6.88-15.294 15.293-15.294h57.347c8.413 0 15.293 6.88 15.293 15.294v57.346c0 8.414-6.88 15.294-15.293 15.294M4739.4 538.587h-57.347c-8.413 0-15.293-6.88-15.293-15.294v-57.346c0-8.414 6.88-15.294 15.293-15.294h57.347c8.413 0 15.293 6.88 15.293 15.294v57.346c0 8.414-6.88 15.294-15.293 15.294"
        fill="#111131" />
    <path
        d="M4928.84 538.587h-57.347c-8.413 0-15.306-6.88-15.306-15.294v-57.346c0-8.414 6.893-15.294 15.306-15.294h57.347c8.413 0 15.293 6.88 15.293 15.294v57.346c0 8.414-6.88 15.294-15.293 15.294"
        fill="#111131" />
    <path
        d="M914.516 857.933H719.851c-6.31 0-11.471-5.173-11.471-11.48 0-6.306 5.161-11.466 11.47-11.466h194.666c6.31 0 11.47 5.16 11.47 11.466 0 6.307-5.16 11.48-11.47 11.48M914.516 898.867H719.851c-6.31 0-11.471-5.16-11.471-11.48 0-6.307 5.161-11.467 11.47-11.467h194.666c6.31 0 11.47 5.16 11.47 11.467 0 6.32-5.16 11.48-11.47 11.48M914.516 948.027H719.851c-6.31 0-11.471-5.16-11.471-11.467 0-6.32 5.161-11.48 11.47-11.48h194.666c6.31 0 11.47 5.16 11.47 11.48 0 6.307-5.16 11.467-11.47 11.467"
        fill="#fff" />
    <path
        d="M1325.15 1230.667h-232c-10.29 0-18.633-8.347-18.633-18.64v-82.734c0-10.28 8.343-18.626 18.634-18.626h232c10.289 0 18.636 8.346 18.636 18.626v82.734c0 10.293-8.347 18.64-18.636 18.64"
        fill="#9ec8ff" />
    <path
        d="M4785.16 693.467h-792.68c-8.8 0-16-7.2-16-16v-10.8c0-8.8 7.2-16 16-16h792.68c8.8 0 16 7.2 16 16v10.8c0 8.8-7.2 16-16 16M4785.16 774.427h-792.68c-8.8 0-16-7.2-16-16V747.64c0-8.8 7.2-16 16-16h792.68c8.8 0 16 7.2 16 16v10.787c0 8.8-7.2 16-16 16"
        fill="#111131" /></svg>