<svg xmlns:xlink="http://www.w3.org/1999/xlink" xmlns="http://www.w3.org/2000/svg" viewBox="0 0 380 105.66410025177623"
    preserveAspectRatio="xMidYMid meet" class="css-1r4bsbq" id="cbbfagfc" width="380" height="105.66410025177623">
    <defs id="SvgjsDefs24351">
        <linearGradient id="SvgjsLinearGradient24358">
            <stop id="SvgjsStop24359" stop-color="#115E59" offset="0"></stop>
            <stop id="SvgjsStop24360" stop-color="#10B981" offset="1"></stop>
        </linearGradient>
        <linearGradient id="SvgjsLinearGradient24361">
            <stop id="SvgjsStop24362" stop-color="#115E59" offset="0"></stop>
            <stop id="SvgjsStop24363" stop-color="#10B981" offset="1"></stop>
        </linearGradient>
        <linearGradient id="SvgjsLinearGradient24364">
            <stop id="SvgjsStop24365" stop-color="#115E59" offset="0"></stop>
            <stop id="SvgjsStop24366" stop-color="#10B981" offset="1"></stop>
        </linearGradient>
    </defs>
    <g id="SvgjsG24352" featurekey="symbolFeature-0"
        transform="matrix(1.3664934293175977,0,0,1.3664934293175977,-20.15850956801868,-15.977040404093056)"
        fill="url(&quot;#SvgjsLinearGradient24358&quot;)">
        <path xmlns="http://www.w3.org/2000/svg" fill="url(&quot;#SvgjsLinearGradient24358&quot;)"
            d="M61.64,58.881c-7.924,9.351-16.084,9.953-16.044,10.52c-2.867-21.792,10.982-37.815,10.982-37.815  c-2.932,2.908-5.308,5.971-7.229,9.104c0.133-0.221,0.224-0.371,0.224-0.371c-3.369-2.856-5.174-11.592-5.174-11.592  c0.793,10.315,3.651,14.212,3.651,14.212c0.256-0.487,0.697-1.241,1.041-1.817c-2.927,4.887-4.749,9.935-5.813,14.842  c0.046-0.237,0.075-0.386,0.075-0.386c-1.904-5.694-8.476-10.188-8.476-10.188c5.237,5.395,7.674,14.616,7.674,14.616  c0.026-0.203,0.082-0.541,0.15-0.936c-2.529,16.138,2.583,29.947,2.583,29.947h7.432c-3.517-5.776-5.59-11.39-6.639-16.701  c0.099,0.438,0.17,0.688,0.17,0.688C54.498,69.195,61.64,58.881,61.64,58.881z">
        </path>
        <path xmlns="http://www.w3.org/2000/svg" fill="url(&quot;#SvgjsLinearGradient24358&quot;)"
            d="M51.316,59.684c0,0-3.159-22.583,36.616-22.119c0,0-4.555,34.476-28.624,31.875  c0,0,8.829-7.395,8.829-15.872C68.138,53.568,61.35,50.951,51.316,59.684z">
        </path>
        <path xmlns="http://www.w3.org/2000/svg" fill="url(&quot;#SvgjsLinearGradient24358&quot;)"
            d="M34.543,51.682c0,0-18.061,3.744-19.791-28.382c0,0,28.069,1.85,27.243,21.414c0,0-6.435-6.733-13.277-6.285  C28.719,38.429,26.965,44.047,34.543,51.682z">
        </path>
        <path xmlns="http://www.w3.org/2000/svg" fill="url(&quot;#SvgjsLinearGradient24358&quot;)"
            d="M51.258,31.022c0,0-3.108-13.878,21.645-15.606c0,0-1.084,21.666-16.18,21.27c0,0,5.112-5.046,4.684-10.315  C61.406,26.37,57.053,25.086,51.258,31.022z">
        </path>
        <path xmlns="http://www.w3.org/2000/svg" fill="url(&quot;#SvgjsLinearGradient24358&quot;)"
            d="M41.5,31.083c0,0-9.766-3.453-1.254-19.391c0,0,12.947,9.051,6.862,18.211c0,0-1.134-5.105-4.552-6.881  C42.556,23.022,40.08,25.212,41.5,31.083z">
        </path>
    </g>
    <g id="SvgjsG24353" featurekey="nameFeature-0"
        transform="matrix(2.323419942555484,0,0,2.323419942555484,118.04832910951357,-20.881039310665805)"
        fill="url(&quot;#SvgjsLinearGradient24361&quot;)">
        <path
            d="M16.04 30 c-0.16 -2.92 -1.48 -4.64 -4.52 -4.64 c-0.84 0 -1.56 0.12 -2.16 0.36 c-1.84 0.84 -2.52 2.4 -2.52 4.32 c0 0.64 0.08 1.24 0.28 1.76 c0.6 2.08 2.4 2.84 4.4 2.84 c3.04 0 4.52 -1.64 4.52 -4.64 z M23.64 40 l-6 0 c-0.4 -1 -0.76 -2 -1 -3.04 c-1.36 2.24 -3.44 3.24 -6 3.24 c-5.72 0 -9.8 -4.8 -9.8 -10.28 c0 -6.32 4.72 -10.12 10.68 -10.12 c6.36 0 10.36 4.08 10.52 10.2 c0.04 0.52 0.04 1.12 0.04 1.84 c0 2.8 0.44 5.6 1.56 8.16 z M40.12 20 l6 0 l0 10 c0 6.12 -4.24 10.2 -10.2 10.2 c-6.12 0 -10.2 -4.28 -10.2 -10.2 l0 -10 l6 0 l0 10 c0 2.68 1.36 4.64 4.2 4.64 c2.92 0 4.2 -1.92 4.2 -4.64 l0 -10 z M61.72 20 l6 0 l0 2 c0 3.04 -1.04 5.96 -3.28 8.04 l5.28 9.96 l-7.4 0 l-6.2 -11.84 l0 11.84 l-6 0 l0 -28 l6 0 l0 15.08 l0.92 0 c3.24 0 4.68 -2.16 4.68 -5.12 l0 -1.96 z M77.52 30 l0 10 l-6 0 l0 -9.96 c0 -6.64 4.88 -10.24 11.04 -10.24 c0.2 0 0.48 0 0.76 0.04 s0.6 0.12 0.88 0.16 l0 5.8 c-0.2 -0.04 -0.44 -0.08 -0.72 -0.12 s-0.52 -0.08 -0.72 -0.08 c-1 0 -1.8 0.12 -2.48 0.32 c-1.12 0.4 -2.12 1.16 -2.48 2.36 c-0.2 0.52 -0.28 1.12 -0.28 1.72 z M100.84 30 c-0.16 -2.92 -1.48 -4.64 -4.52 -4.64 c-0.84 0 -1.56 0.12 -2.16 0.36 c-1.84 0.84 -2.52 2.4 -2.52 4.32 c0 0.64 0.08 1.24 0.28 1.76 c0.6 2.08 2.4 2.84 4.4 2.84 c3.04 0 4.52 -1.64 4.52 -4.64 z M108.44 40 l-6 0 c-0.4 -1 -0.76 -2 -1 -3.04 c-1.36 2.24 -3.44 3.24 -6 3.24 c-5.72 0 -9.8 -4.8 -9.8 -10.28 c0 -6.32 4.72 -10.12 10.68 -10.12 c6.36 0 10.36 4.08 10.52 10.2 c0.04 0.52 0.04 1.12 0.04 1.84 c0 2.8 0.44 5.6 1.56 8.16 z"
            fill="url(&quot;#SvgjsLinearGradient24361&quot;)"></path>
    </g>
    <g id="SvgjsG24354" featurekey="sloganFeature-0"
        transform="matrix(1.1379723029577706,0,0,1.1379723029577706,119.02205505214566,76.52111526309251)"
        fill="url(&quot;#SvgjsLinearGradient24364&quot;)">
        <path
            d="M8.076172 20.195313 c-4.150391 0 -7.216797 -2.822266 -7.216797 -7.255859 s3.066406 -7.246094 7.216797 -7.246094 c3.144531 0 5.664063 1.611328 6.669922 4.287109 l-2.734375 0.996094 c-0.625 -1.640625 -2.119141 -2.587891 -3.935547 -2.587891 c-2.431641 0 -4.296875 1.699219 -4.296875 4.550781 s1.865234 4.560547 4.296875 4.560547 c1.816406 0 3.310547 -0.957031 3.935547 -2.597656 l2.734375 0.996094 c-1.005859 2.675781 -3.525391 4.296875 -6.669922 4.296875 z M26.044922 5.888672 l2.929688 0 l0 14.111328 l-2.929687 0 l0 -5.800781 l-5.966797 0 l0 5.800781 l-2.929687 0 l0 -14.111328 l2.929688 0 l0 5.761719 l5.966797 0 l0 -5.761719 z M40.810547 8.466797 l-5.234375 0 l0 3.203125 l4.638672 0 l0 2.548828 l-4.638672 0 l0 3.193359 l5.234375 0 l0 2.587891 l-8.183594 0 l0 -14.111328 l8.183594 0 l0 2.578125 z M60 20 l-2.919922 0 l-0.927734 -10.634766 l-3.574219 10.634766 l-1.894531 0 l-3.574219 -10.634766 l-0.9375 10.634766 l-2.929687 0 l1.181641 -14.111328 l4.179688 0 l3.007813 8.857422 l3.046875 -8.857422 l4.179688 0 z M63.066406 20 l0 -14.111328 l2.929688 0 l0 14.111328 l-2.929687 0 z M75.888672 20.195313 c-4.150391 0 -7.216797 -2.822266 -7.216797 -7.255859 s3.066406 -7.246094 7.216797 -7.246094 c3.144531 0 5.664063 1.611328 6.669922 4.287109 l-2.734375 0.996094 c-0.625 -1.640625 -2.119141 -2.587891 -3.935547 -2.587891 c-2.431641 0 -4.296875 1.699219 -4.296875 4.550781 s1.865234 4.560547 4.296875 4.560547 c1.816406 0 3.310547 -0.957031 3.935547 -2.597656 l2.734375 0.996094 c-1.005859 2.675781 -3.525391 4.296875 -6.669922 4.296875 z M94.404297 20 l-1.025391 -2.910156 l-5.927734 0 l-1.025391 2.910156 l-2.998047 0 l5.195313 -14.111328 l3.583984 0 l5.195313 14.111328 l-2.998047 0 z M88.310547 14.638672 l4.208984 0 l-2.099609 -5.986328 z M102.451172 17.412109 l4.423828 0 l0 2.587891 l-7.353516 0 l0 -14.111328 l2.929688 0 l0 11.523438 z M122.490235 8.466797 l-5.234375 0 l0 3.203125 l4.638672 0 l0 2.548828 l-4.638672 0 l0 3.193359 l5.234375 0 l0 2.587891 l-8.183594 0 l0 -14.111328 l8.183594 0 l0 2.578125 z M130.195313 20.195313 c-3.027344 0 -5.390625 -1.455078 -5.820312 -4.101562 l3.027344 -0.693359 c0.195313 1.582031 1.357422 2.402344 2.910156 2.402344 c1.191406 0 2.138672 -0.527344 2.128906 -1.71875 c-0.009766 -1.328125 -1.572266 -1.748047 -3.291016 -2.275391 c-2.070312 -0.644531 -4.287109 -1.40625 -4.287109 -4.003906 c0 -2.626953 2.148438 -4.111328 4.980469 -4.111328 c2.480469 0 4.980469 1.005859 5.546875 3.710938 l-2.832031 0.703125 c-0.263672 -1.40625 -1.210937 -2.021484 -2.539062 -2.021484 c-1.181641 0 -2.1875 0.488281 -2.1875 1.650391 c0 1.083984 1.386719 1.445313 2.988281 1.923828 c2.128906 0.644531 4.648438 1.464844 4.648438 4.277344 c0 2.998047 -2.509766 4.257813 -5.273437 4.257813 z M142.861328 20.195313 c-3.027344 0 -5.390625 -1.455078 -5.820312 -4.101562 l3.027344 -0.693359 c0.195313 1.582031 1.357422 2.402344 2.910156 2.402344 c1.191406 0 2.138672 -0.527344 2.128906 -1.71875 c-0.009766 -1.328125 -1.572266 -1.748047 -3.291016 -2.275391 c-2.070312 -0.644531 -4.287109 -1.40625 -4.287109 -4.003906 c0 -2.626953 2.148438 -4.111328 4.980469 -4.111328 c2.480469 0 4.980469 1.005859 5.546875 3.710938 l-2.832031 0.703125 c-0.263672 -1.40625 -1.210937 -2.021484 -2.539062 -2.021484 c-1.181641 0 -2.1875 0.488281 -2.1875 1.650391 c0 1.083984 1.386719 1.445313 2.988281 1.923828 c2.128906 0.644531 4.648438 1.464844 4.648438 4.277344 c0 2.998047 -2.509766 4.257813 -5.273437 4.257813 z M159.023438 8.466797 l-5.234375 0 l0 3.203125 l4.638672 0 l0 2.548828 l-4.638672 0 l0 3.193359 l5.234375 0 l0 2.587891 l-8.183594 0 l0 -14.111328 l8.183594 0 l0 2.578125 z M171.679688 5.888672 l2.919922 0 l0 14.111328 l-3.388672 0 l-6.25 -10.087891 l0 10.087891 l-2.919922 0 l0 -14.111328 l3.349609 0 l6.289063 10.029297 l0 -10.029297 z M186.435547 5.888672 l0 2.578125 l-3.349609 0 l0 11.533203 l-2.900391 0 l0 -11.533203 l-3.369141 0 l0 -2.578125 l9.619141 0 z M188.652344 20 l0 -14.111328 l2.929688 0 l0 14.111328 l-2.929687 0 z M204.667969 20 l-1.025391 -2.910156 l-5.927734 0 l-1.025391 2.910156 l-2.998047 0 l5.195313 -14.111328 l3.583984 0 l5.195313 14.111328 l-2.998047 0 z M198.574219 14.638672 l4.208984 0 l-2.099609 -5.986328 z M212.714843 17.412109 l4.423828 0 l0 2.587891 l-7.353516 0 l0 -14.111328 l2.929688 0 l0 11.523438 z M224.0625 20.195313 c-3.027344 0 -5.390625 -1.455078 -5.820312 -4.101562 l3.027344 -0.693359 c0.195313 1.582031 1.357422 2.402344 2.910156 2.402344 c1.191406 0 2.138672 -0.527344 2.128906 -1.71875 c-0.009766 -1.328125 -1.572266 -1.748047 -3.291016 -2.275391 c-2.070312 -0.644531 -4.287109 -1.40625 -4.287109 -4.003906 c0 -2.626953 2.148438 -4.111328 4.980469 -4.111328 c2.480469 0 4.980469 1.005859 5.546875 3.710938 l-2.832031 0.703125 c-0.263672 -1.40625 -1.210937 -2.021484 -2.539062 -2.021484 c-1.181641 0 -2.1875 0.488281 -2.1875 1.650391 c0 1.083984 1.386719 1.445313 2.988281 1.923828 c2.128906 0.644531 4.648438 1.464844 4.648438 4.277344 c0 2.998047 -2.509766 4.257813 -5.273437 4.257813 z"
            fill="url(&quot;#SvgjsLinearGradient24364&quot;)"></path>
    </g>
</svg>